<svg width="414" height="896" viewBox="0 0 414 896" fill="none" xmlns="http://www.w3.org/2000/svg">
<g clip-path="url(#clip0_4168_337)">
<rect width="414" height="896" fill="white"/>
<rect width="414" height="896" fill="#AF99CC"/>
<path d="M504.88 673.79C398.917 697.596 350.057 583.784 260.409 504.184C174.587 427.982 77.3201 415.264 56.6821 279.794C24.6228 69.3519 287.697 -26.0029 432.878 63.6587C595.93 164.357 681.856 634.032 504.88 673.79Z" fill="#685383" fill-opacity="0.8"/>
<path d="M702.88 471.614C596.917 489.311 548.057 404.701 458.409 345.523C372.587 288.872 275.32 279.417 254.682 178.705C222.623 22.2554 485.697 -48.6343 630.878 18.0229C793.93 92.8848 879.856 442.056 702.88 471.614Z" fill="#F6F5F5"/>
<path d="M81.197 572.96C76.8023 572.96 72.8557 571.979 69.357 570.016C65.8583 568.011 63.1277 565.237 61.165 561.696C59.2023 558.155 58.221 554.123 58.221 549.6C58.221 545.077 59.2023 541.045 61.165 537.504C63.1277 533.963 65.8583 531.211 69.357 529.248C72.8557 527.243 76.8023 526.24 81.197 526.24C85.037 526.24 88.493 527.008 91.565 528.544C94.637 530.037 97.1543 532.171 99.117 534.944C101.08 537.717 102.296 540.917 102.765 544.544H98.925C98.413 541.6 97.3463 539.04 95.725 536.864C94.1463 534.688 92.0983 533.003 89.581 531.808C87.1063 530.613 84.3117 530.016 81.197 530.016C77.485 530.016 74.1783 530.848 71.277 532.512C68.4183 534.133 66.1783 536.437 64.557 539.424C62.9357 542.411 62.125 545.803 62.125 549.6C62.125 553.397 62.9357 556.789 64.557 559.776C66.1783 562.72 68.4183 565.024 71.277 566.688C74.1783 568.352 77.485 569.184 81.197 569.184C84.3117 569.184 87.1063 568.587 89.581 567.392C92.0983 566.197 94.1463 564.512 95.725 562.336C97.3463 560.16 98.413 557.6 98.925 554.656H102.765C102.296 558.283 101.08 561.483 99.117 564.256C97.1543 567.029 94.637 569.184 91.565 570.72C88.493 572.213 85.037 572.96 81.197 572.96ZM114.692 572V527.2H127.748C132.953 527.2 137.049 528.352 140.036 530.656C143.023 532.917 144.516 536.032 144.516 540C144.516 543.328 143.471 546.08 141.38 548.256C139.289 550.389 136.367 551.755 132.612 552.352L148.74 572H144.26L128.388 552.736C128.132 552.779 127.855 552.8 127.556 552.8C127.3 552.8 127.044 552.8 126.788 552.8H118.468V572H114.692ZM127.428 551.52C131.567 551.52 134.809 550.603 137.156 548.768C139.503 546.891 140.676 544.331 140.676 541.088C140.676 537.845 139.503 535.307 137.156 533.472C134.809 531.595 131.567 530.656 127.428 530.656H118.468V551.52H127.428ZM156.591 572V540H160.047V572H156.591ZM157.999 535.072L156.015 524.32H160.623L158.639 535.072H157.999ZM184.931 572.64C182.115 572.64 179.533 571.915 177.187 570.464C174.883 568.971 173.069 566.965 171.747 564.448C170.424 561.888 169.763 559.072 169.763 556C169.763 552.928 170.424 550.133 171.747 547.616C173.069 545.056 174.883 543.051 177.187 541.6C179.533 540.107 182.115 539.36 184.931 539.36C188.259 539.36 191.16 540.341 193.635 542.304C196.152 544.267 197.923 546.848 198.947 550.048V526.56H202.403V572H198.947V561.888C197.923 565.131 196.152 567.733 193.635 569.696C191.16 571.659 188.259 572.64 184.931 572.64ZM186.147 569.376C188.536 569.376 190.712 568.8 192.675 567.648C194.637 566.453 196.173 564.832 197.283 562.784C198.435 560.736 199.011 558.475 199.011 556C199.011 553.525 198.435 551.264 197.283 549.216C196.173 547.168 194.637 545.568 192.675 544.416C190.712 543.221 188.536 542.624 186.147 542.624C183.757 542.624 181.581 543.221 179.619 544.416C177.656 545.568 176.099 547.168 174.947 549.216C173.837 551.264 173.283 553.525 173.283 556C173.283 558.475 173.837 560.736 174.947 562.784C176.099 564.832 177.656 566.453 179.619 567.648C181.581 568.8 183.757 569.376 186.147 569.376ZM215.466 572V540H218.922V549.728C219.775 546.699 221.247 544.224 223.338 542.304C225.471 540.341 227.946 539.36 230.762 539.36C232.98 539.36 234.858 539.829 236.394 540.768C237.93 541.664 239.082 542.987 239.85 544.736C240.66 546.485 241.066 548.597 241.066 551.072V552.864H237.61V551.584C237.61 548.725 236.906 546.528 235.498 544.992C234.09 543.456 232.084 542.688 229.482 542.688C227.562 542.688 225.791 543.264 224.17 544.416C222.548 545.525 221.268 547.061 220.33 549.024C219.391 550.944 218.922 553.056 218.922 555.36V572H215.466Z" fill="#73559A"/>
</g>
<defs>
<clipPath id="clip0_4168_337">
<rect width="414" height="896" fill="white"/>
</clipPath>
</defs>
</svg>
